<svg viewBox="0 0 1080 1080" fill="none" xmlns="http://www.w3.org/2000/svg">      <defs>  <filter id="filter" x="-20%" y="-20%" width="140%" height="140%" filterUnits="objectBoundingBox" primitiveUnits="userSpaceOnUse" color-interpolation-filters="linearRGB">    <feMorphology operator="dilate" radius="20 20" in="SourceAlpha" result="morphology"/>    <feFlood flood-color="#ffffff" flood-opacity="1" result="flood"/>    <feComposite in="flood" in2="morphology" operator="in" result="composite"/>    <feMerge result="merge">          <feMergeNode in="composite" result="mergeNode"/>      <feMergeNode in="SourceGraphic" result="mergeNode1"/>      </feMerge>  </filter></defs>      <g id="notion-avatar" filter="url(#filter)">        <g id="notion-avatar-face" fill="#ffffff">      <!--?xml version="1.0" encoding="UTF-8"?-->    <title>Face/ 6</title>    <g id="Face/-6" stroke="none" stroke-width="1" fill-rule="evenodd" stroke-linecap="round" stroke-linejoin="round">        <path d="M532,379 C664.54834,379 772,486.45166 772,619 C772,751.54834 764.54834,899 532,899 C402.610491,899 332.317998,816.086314 305.249034,718.717925 C264.225797,715.291578 232,680.909158 232,639 C232,599.134956 261.158843,566.080325 299.312086,560.00055 C325.599297,455.979213 419.809919,379 532,379 Z M295.858895,624.545187 L304.141105,655.454813" id="Path" stroke="#000000" stroke-width="24"/>    </g>    </g><g id="notion-avatar-nose">      <!--?xml version="1.0" encoding="UTF-8"?-->    <title>Nose/ 10</title>    <g id="Nose/-10" stroke="none" stroke-width="1" fill="none" fill-rule="evenodd" stroke-linecap="round" stroke-linejoin="round">        <path d="M631,694.380659 C660.333333,687.46022 678,677.333333 684,664 C693,644 637.033407,606.392531 660.161467,579" id="Path" stroke="#000000" stroke-width="16"/>    </g>    </g><g id="notion-avatar-mouth">      <g id="Mouth/ 14"><g id="Group"><path id="Path" fill-rule="evenodd" clip-rule="evenodd" d="M555.87 801.555C536.147 789.209 521.396 768.019 521.396 768.019C521.396 768.019 569 757.637 609 757.319C649 757 696.604 768.019 696.604 768.019C696.604 768.019 681.852 789.209 662.129 801.555C653.101 807.207 625 810 609.443 810C593.886 810 564.806 807.15 555.87 801.555Z" stroke="black" stroke-width="16" stroke-linecap="round" stroke-linejoin="round"/><path id="Path_2" d="M569.322 801C569.322 801 589.161 793 609 793C628.838 793 648.677 801 648.677 801" stroke="black" stroke-width="8" stroke-linecap="round" stroke-linejoin="round"/></g></g>    </g><g id="notion-avatar-eyes">      <!--?xml version="1.0" encoding="UTF-8"?-->    <title>Eyes/ 7</title>    <g id="Eyes/-7" stroke="none" stroke-width="1" fill="none" fill-rule="evenodd">        <path d="M570,516 C578.836556,516 586,526.745166 586,540 C586,553.254834 578.836556,564 570,564 C561.163444,564 554,553.254834 554,540 C554,526.745166 561.163444,516 570,516 Z M708,516 C716.836556,516 724,526.745166 724,540 C724,553.254834 716.836556,564 708,564 C699.163444,564 692,553.254834 692,540 C692,526.745166 699.163444,516 708,516 Z M568,527 C564.686292,527 562,529.686292 562,533 C562,536.313708 564.686292,539 568,539 C571.313708,539 574,536.313708 574,533 C574,529.686292 571.313708,527 568,527 Z M706,527 C702.686292,527 700,529.686292 700,533 C700,536.313708 702.686292,539 706,539 C709.313708,539 712,536.313708 712,533 C712,529.686292 709.313708,527 706,527 Z" id="Combined-Shape" fill="#000000"/>    </g>    </g><g id="notion-avatar-eyebrows">      <!--?xml version="1.0" encoding="UTF-8"?-->    <title>Eyebrows/ 6</title>    <g id="Eyebrows/-6" stroke="none" stroke-width="1" fill="none" fill-rule="evenodd" stroke-linecap="round" stroke-linejoin="round">        <path d="M620,495.140162 C589.850248,491.823271 565.234864,491.823271 546.153846,495.140162 C527.072829,498.457053 511.688213,505.410333 500,516 C517.257672,497.488903 532.642287,487.058984 546.153846,484.710243 C559.665405,482.361502 584.280789,485.838142 620,495.140162 Z M658,495.140162 C693.719211,485.838142 718.334595,482.361502 731.846154,484.710243 C745.357713,487.058984 760.742328,497.488903 778,516 C766.311787,505.410333 750.927171,498.457053 731.846154,495.140162 C712.765136,491.823271 688.149752,491.823271 658,495.140162 Z" id="Combined-Shape" stroke="#000000" stroke-width="8" fill="#000000"/>    </g>    </g><g id="notion-avatar-glasses">      <!--?xml version="1.0" encoding="UTF-8"?-->    <title>Glasses/ 0</title>    <g id="Glasses/-0" stroke="none" stroke-width="1" fill="none" fill-rule="evenodd"/>    </g><g id="notion-avatar-hair">      <!--?xml version="1.0" encoding="UTF-8"?-->    <title>Hairstyle/ 19</title>    <g id="Hairstyle/-19" stroke="none" stroke-width="1" fill="none" fill-rule="evenodd" stroke-linecap="round" stroke-linejoin="round">        <path d="M715,783 C769.666667,772.333333 820.666667,743.333333 868,696 C915.333333,648.666667 953.666667,558.666667 983,426 C929.666667,426.666667 880,414.333333 834,389 C765,351 741,280 661,241 C581,202 461,201 358,253 C255,305 227,380 204,480 C181,580 212,651 253,711 C280.333333,751 326.566025,785.776632 391.698074,815.329897 C380.566025,808.443299 366,794.666667 348,774 C330,753.333333 318,735 312,719 C258.666667,708.333333 232,682 232,640 C232,598 256,573 304,565 C360.331388,536.962528 403.56408,514.405827 433.698074,497.329897 C463.832069,480.253967 510.832069,447.5873 574.698074,399.329897 C565.822413,415.742124 557.155746,428.408791 548.698074,437.329897 C540.240402,446.251003 522.907069,460.584336 496.698074,480.329897 C531.566025,468.776632 557.666667,456.666667 575,444 C592.333333,431.333333 610.333333,416.333333 629,399 C656.534617,398.780069 693.201284,425.780069 739,480 C780.27108,528.859778 794.612271,600.08834 772,683 C764,712.333333 745,745.666667 715,783 Z" id="Path" stroke="#000000" stroke-width="12" fill="#000000"/>    </g>    </g><g id="notion-avatar-accessories">      <!--?xml version="1.0" encoding="UTF-8"?-->    <title>Accessories/ 0</title>    <g id="Accessories/-0" stroke="none" stroke-width="1" fill="none" fill-rule="evenodd"/>    </g><g id="notion-avatar-details">      <!--?xml version="1.0" encoding="UTF-8"?-->    <title>Details/ 0</title>    <g id="Details/-0" stroke="none" stroke-width="1" fill="none" fill-rule="evenodd"/>    </g><g id="notion-avatar-beard">      <!--?xml version="1.0" encoding="UTF-8"?-->    <title>Beard/ 0</title>    <g id="Beard/-0" stroke="none" stroke-width="1" fill="none" fill-rule="evenodd"/>    </g>      </g>      </svg>